<svg width="61" height="61" viewBox="0 0 61 61" fill="none" xmlns="http://www.w3.org/2000/svg">
<g id="alert-circle">
<path id="Vector" d="M33.0417 33.0417H27.9584V17.7917H33.0417M33.0417 43.2083H27.9584V38.125H33.0417M30.5 5.08333C27.1623 5.08333 23.8572 5.74075 20.7735 7.01806C17.6898 8.29536 14.8879 10.1675 12.5277 12.5277C7.76119 17.2942 5.08337 23.7591 5.08337 30.5C5.08337 37.2409 7.76119 43.7057 12.5277 48.4723C14.8879 50.8324 17.6898 52.7046 20.7735 53.9819C23.8572 55.2592 27.1623 55.9167 30.5 55.9167C37.241 55.9167 43.7058 53.2388 48.4723 48.4723C53.2389 43.7057 55.9167 37.2409 55.9167 30.5C55.9167 27.1622 55.2593 23.8571 53.982 20.7735C52.7047 17.6898 50.8325 14.8879 48.4723 12.5277C46.1122 10.1675 43.3103 8.29536 40.2266 7.01806C37.1429 5.74075 33.8378 5.08333 30.5 5.08333Z" fill="#C26060"/>
</g>
</svg>
