<svg width="51" height="51" viewBox="0 0 51 51" fill="none" xmlns="http://www.w3.org/2000/svg">
<path d="M20.4167 38.2082L7.70837 25.4999L11.2921 21.8908L20.4167 31.0153L39.708 11.7241L43.2917 15.3333M25.5 0.083252C22.1623 0.083252 18.8572 0.740674 15.7735 2.01798C12.6898 3.29529 9.8879 5.16747 7.52774 7.52762C2.76119 12.2942 0.083374 18.759 0.083374 25.4999C0.083374 32.2408 2.76119 38.7057 7.52774 43.4722C9.8879 45.8324 12.6898 47.7045 15.7735 48.9819C18.8572 50.2592 22.1623 50.9166 25.5 50.9166C32.241 50.9166 38.7058 48.2388 43.4723 43.4722C48.2389 38.7057 50.9167 32.2408 50.9167 25.4999C50.9167 22.1622 50.2593 18.8571 48.982 15.7734C47.7047 12.6897 45.8325 9.88778 43.4723 7.52762C41.1122 5.16747 38.3103 3.29529 35.2266 2.01798C32.1429 0.740674 28.8378 0.083252 25.5 0.083252Z" fill="#60C26F"/>
</svg>
