<svg width="20" height="20" viewBox="0 0 20 20" fill="none" xmlns="http://www.w3.org/2000/svg">
<g id="close-box">
<path id="Vector" d="M16.3272 2.5H13.9938H6.56173H4.2284C3.77 2.5 3.33037 2.6821 3.00624 3.00624C2.6821 3.33037 2.5 3.77 2.5 4.22839V6.56173V14.0802V16.3272C2.5 16.7856 2.6821 17.2252 3.00624 17.5493C3.33037 17.8735 3.77 18.0556 4.2284 18.0556H6.56173H14.0802H16.3272C16.7856 18.0556 17.2252 17.8735 17.5493 17.5493C17.8735 17.2252 18.0556 16.7856 18.0556 16.3272V13.9938V6.56173V4.22839C18.0556 3.77 17.8735 3.33037 17.5493 3.00624C17.2252 2.6821 16.7856 2.5 16.3272 2.5ZM13.3889 14.5988L10.2778 11.4877L7.16667 14.5988L5.95679 13.3889L9.0679 10.2778L5.95679 7.16667L7.16667 5.95679L10.2778 9.0679L13.3889 5.95679L14.5988 7.16667L11.4877 10.2778L14.5988 13.3889L13.3889 14.5988Z" fill="#DA0202" fill-opacity="0.5"/>
</g>
</svg>
