<svg width="35" height="35" viewBox="0 0 35 35" fill="none" xmlns="http://www.w3.org/2000/svg">
<g id="close-box">
<path id="Vector" d="M27.7083 4.375H23.7708H11.2292H7.29167C6.51812 4.375 5.77625 4.68229 5.22927 5.22927C4.68229 5.77625 4.375 6.51812 4.375 7.29167V11.2292V23.9167V27.7083C4.375 28.4819 4.68229 29.2237 5.22927 29.7707C5.77625 30.3177 6.51812 30.625 7.29167 30.625H11.2292H23.9167H27.7083C28.4819 30.625 29.2237 30.3177 29.7707 29.7707C30.3177 29.2237 30.625 28.4819 30.625 27.7083V23.7708V11.2292V7.29167C30.625 6.51812 30.3177 5.77625 29.7707 5.22927C29.2237 4.68229 28.4819 4.375 27.7083 4.375ZM22.75 24.7917L17.5 19.5417L12.25 24.7917L10.2083 22.75L15.4583 17.5L10.2083 12.25L12.25 10.2083L17.5 15.4583L22.75 10.2083L24.7917 12.25L19.5417 17.5L24.7917 22.75L22.75 24.7917Z" fill="#DA0202"/>
</g>
</svg>
