<svg width="18" height="18" viewBox="0 0 18 18" fill="none" xmlns="http://www.w3.org/2000/svg">
<g id="file-pdf-box">
<path id="Vector" d="M14.25 2.25H3.75C2.925 2.25 2.25 2.925 2.25 3.75V14.25C2.25 15.075 2.925 15.75 3.75 15.75H14.25C15.075 15.75 15.75 15.075 15.75 14.25V3.75C15.75 2.925 15.075 2.25 14.25 2.25ZM7.125 8.625C7.125 9.225 6.6 9.75 6 9.75H5.25V11.25H4.125V6.75H6C6.6 6.75 7.125 7.275 7.125 7.875V8.625ZM10.875 10.125C10.875 10.725 10.35 11.25 9.75 11.25H7.875V6.75H9.75C10.35 6.75 10.875 7.275 10.875 7.875V10.125ZM13.875 7.875H12.75V8.625H13.875V9.75H12.75V11.25H11.625V6.75H13.875V7.875ZM9 7.875H9.75V10.125H9V7.875ZM5.25 7.875H6V8.625H5.25V7.875Z" fill="#4D8BBA"/>
</g>
</svg>
