<svg width="35" height="35" viewBox="0 0 35 35" fill="none" xmlns="http://www.w3.org/2000/svg">
<g id="pencil-box">
<path id="Vector" d="M27.7083 4.375C28.4819 4.375 29.2237 4.68229 29.7707 5.22927C30.3177 5.77625 30.625 6.51812 30.625 7.29167V27.7083C30.625 29.3271 29.3125 30.625 27.7083 30.625H7.29167C6.51812 30.625 5.77625 30.3177 5.22927 29.7707C4.68229 29.2237 4.375 28.4819 4.375 27.7083V7.29167C4.375 6.51812 4.68229 5.77625 5.22927 5.22927C5.77625 4.68229 6.51812 4.375 7.29167 4.375H27.7083ZM24.3542 13.6354C24.675 13.3292 24.675 12.8188 24.3542 12.5125L22.4875 10.6458C22.1813 10.325 21.6708 10.325 21.3646 10.6458L19.9062 12.1042L22.8958 15.0938L24.3542 13.6354ZM10.2083 21.7875V24.7917H13.2125L22.05 15.9542L19.0458 12.95L10.2083 21.7875Z" fill="#ACACAC"/>
</g>
</svg>
