<svg width="20" height="20" viewBox="0 0 20 20" fill="none" xmlns="http://www.w3.org/2000/svg">
<g id="pencil-box">
<path id="Vector" d="M16.3272 2.5C16.7856 2.5 17.2252 2.6821 17.5493 3.00624C17.8735 3.33037 18.0556 3.77 18.0556 4.22839V16.3272C18.0556 17.2864 17.2778 18.0556 16.3272 18.0556H4.2284C3.77 18.0556 3.33037 17.8735 3.00624 17.5493C2.6821 17.2252 2.5 16.7856 2.5 16.3272V4.22839C2.5 3.77 2.6821 3.33037 3.00624 3.00624C3.33037 2.6821 3.77 2.5 4.2284 2.5H16.3272ZM14.3395 7.98765C14.5296 7.80617 14.5296 7.5037 14.3395 7.32222L13.2333 6.21605C13.0519 6.02593 12.7494 6.02593 12.5679 6.21605L11.7037 7.08025L13.4753 8.85185L14.3395 7.98765ZM5.95679 12.8185V14.5988H7.73704L12.9741 9.36173L11.1938 7.58148L5.95679 12.8185Z" fill="#4D8BBA" fill-opacity="0.5"/>
</g>
</svg>
